#!OML:ASF F:\VICON\USERDATA\INSTALL\Justin_Nancy\Justin_Nancy.ASF
:FULLY-SPECIFIED
:DEGREES
238
root 0.594807 17.511 3.61155 -4.91843 -46.9418 5.4245
lowerback 8.01641 0.697516 -2.46952
upperback 0.956415 0.74366 1.19887
thorax -3.55247 0.405386 2.55049
lowerneck -15.859 -2.84835 -9.77564
upperneck 22.4185 -2.56105 4.27082
head 9.93972 -1.5749 2.79065
rclavicle -4.21423e-014 2.06736e-014
rhumerus -34.7642 -13.2962 -78.5674
rradius 32.25
rwrist 4.18792
rhand -13.1133 12.9329
rfingers 7.12502
rthumb 12.984 -16.643
lclavicle -4.21423e-014 2.06736e-014
lhumerus -31.6645 15.0335 80.3396
lradius 22.4377
lwrist -13.2857
lhand -13.8599 25.4612
lfingers 7.12502
lthumb 12.2642 55.0816
rfemur -27.5673 -3.87229 19.45
rtibia 72.0968
rfoot -1.30678 -1.92899
rtoes 13.8708
lfemur -9.65714 -4.7363 -26.0522
ltibia 23.7453
lfoot -10.897 -9.6542
ltoes 14.2253
239
root 0.503345 17.4909 3.71586 -5.04583 -46.8408 5.59043
lowerback 8.15201 0.540291 -2.66276
upperback 0.909901 0.515634 1.23797
thorax -3.66423 0.297471 2.72514
lowerneck -15.801 -2.80385 -9.72041
upperneck 22.351 -2.49017 4.15454
head 9.89716 -1.5502 2.74885
rclavicle 2.6339e-015 -4.77083e-015
rhumerus -34.9428 -13.2873 -78.3541
rradius 32.1979
rwrist 3.89591
rhand -12.9164 13.2877
rfingers 7.12502
rthumb 13.1737 -16.2761
lclavicle 2.6339e-015 -4.77083e-015
lhumerus -31.4632 14.4688 80.6617
lradius 22.8126
lwrist -12.4719
lhand -13.8186 25.4446
lfingers 7.12502
lthumb 12.304 55.0626
rfemur -28.4014 -3.98731 19.3056
rtibia 71.1535
rfoot -2.15597 -1.98163
rtoes 14.4006
lfemur -9.51484 -4.11721 -26.3382
ltibia 24.4043
lfoot -11.0704 -9.99138
ltoes 16.1959
240
root 0.41144 17.4636 3.82244 -5.15514 -46.5513 5.81382
lowerback 8.31637 0.409714 -2.91759
upperback 0.752726 0.316648 1.28138
thorax -3.90784 0.209603 2.93713
lowerneck -15.7813 -2.87514 -9.77934
upperneck 22.4949 -2.58788 4.17492
head 9.95397 -1.60248 2.75455
rclavicle -8.69683e-015 1.59028e-015
rhumerus -35.412 -13.1581 -78.1062
rradius 32.3177
rwrist 3.3755
rhand -13.1428 13.1256
rfingers 7.12502
rthumb 12.9556 -16.4522
lclavicle -8.69683e-015 1.59028e-015
lhumerus -31.4254 13.607 81.1088
lradius 23.3514
lwrist -11.6178
lhand -13.986 25.6461
lfingers 7.12502
lthumb 12.1426 55.2737
rfemur -29.2339 -4.45339 19.1627
rtibia 70.0612
rfoot -3.25672 -1.98399
rtoes 8.46237
lfemur -9.34338 -3.80347 -26.6457
ltibia 24.9432
lfoot -11.7269 -10.4655
ltoes 16.2635
241
root 0.319801 17.4465 3.92693 -5.17532 -46.1158 5.78911
lowerback 8.4481 0.221163 -2.89108
upperback 0.693345 0.0676564 1.35613
thorax -4.02526 0.089186 3.02984
lowerneck -15.6097 -2.98742 -10.0972
upperneck 22.4549 -2.71937 4.32691
head 9.92585 -1.67462 2.84405
rclavicle 9.53172e-014 1.03368e-014
rhumerus -35.7533 -13.3694 -77.6887
rradius 32.3088
rwrist 3.4722
rhand -13.1094 13.1069
rfingers 7.12502
rthumb 12.9878 -16.4688
lclavicle 9.53172e-014 1.03368e-014
lhumerus -31.2548 12.9097 81.5018
lradius 23.8652
lwrist -10.9997
lhand -13.5911 26.0354
lfingers 7.12502
lthumb 12.5233 55.6401
rfemur -29.7874 -4.66661 19.0684
rtibia 68.8648
rfoot -4.68157 -2.17758
rtoes 9.57723
lfemur -8.95209 -3.9327 -26.7349
ltibia 25.2405
lfoot -12.3286 -10.8424
ltoes 15.7839
242
root 0.223883 17.4304 4.02873 -5.60035 -45.8281 6.28471
lowerback 8.5212 0.0322373 -3.29858
upperback 0.720196 -0.224438 1.35727
thorax -4.01514 -0.0493293 3.2964
lowerneck -15.3493 -2.96658 -10.3224
upperneck 22.1495 -2.65973 4.35055
head 9.76815 -1.65913 2.895
rclavicle 1.21259e-014 -1.27222e-014
rhumerus -35.8456 -13.3277 -77.4484
rradius 32.2366
rwrist 3.61644
rhand -12.8078 13.4932
rfingers 7.12502
rthumb 13.2784 -16.0638
lclavicle 1.21259e-014 -1.27222e-014
lhumerus -31.0231 12.4337 81.7908
lradius 24.3521
lwrist -10.4037
lhand -13.4833 26.1276
lfingers 7.12502
lthumb 12.6273 55.726
rfemur -30.3002 -4.78505 18.5594
rtibia 67.5235
rfoot -5.73051 -2.36524
rtoes 14.4568
lfemur -8.40374 -3.88271 -27.2694
ltibia 25.3828
lfoot -12.5499 -10.9156
ltoes 15.6837
243
root 0.126067 17.4066 4.12352 -6.29151 -45.6014 7.47132
lowerback 8.45588 -0.0736076 -4.20648
upperback 0.773347 -0.460839 1.04737
thorax -3.8997 -0.157143 3.51275
lowerneck -15.7732 -2.95723 -9.90991
upperneck 22.2057 -2.68183 4.25578
head 9.86022 -1.64087 2.78873
rclavicle 1.44119e-014 -9.54166e-015
rhumerus -35.7162 -13.6496 -77.6031
rradius 32.1519
rwrist 3.68459
rhand -12.7337 13.3854
rfingers 7.12502
rthumb 13.3499 -16.1669
lclavicle 1.44119e-014 -9.54166e-015
lhumerus -30.5665 11.8941 81.7784
lradius 24.8996
lwrist -9.94168
lhand -13.9511 25.7914
lfingers 7.12502
lthumb 12.1763 55.417
rfemur -31.1395 -5.14988 17.6426
rtibia 65.9716
rfoot -6.79359 -2.1435
rtoes 13.15
lfemur -8.08913 -3.77759 -28.2499
ltibia 25.491
lfoot -13.0262 -11.0404
ltoes 14.9789
244
root 0.0298174 17.3902 4.2156 -6.36 -45.5248 7.76567
lowerback 8.38763 -0.131518 -4.42099
upperback 0.813611 -0.561771 0.868743
thorax -3.81009 -0.208122 3.45771
lowerneck -16.1817 -3.03529 -9.56181
upperneck 22.4149 -2.84766 4.26895
head 10.0178 -1.68592 2.71371
rclavicle -7.65321e-015 -5.56597e-015
rhumerus -35.7559 -14.0888 -77.6292
rradius 32.0597
rwrist 3.84461
rhand -12.5876 13.5095
rfingers 7.12502
rthumb 13.4908 -16.0336
lclavicle -7.65321e-015 -5.56597e-015
lhumerus -29.9583 11.1808 81.7381
lradius 25.2567
lwrist -9.90756
lhand -14.4257 25.5616
lfingers 7.12502
lthumb 11.7186 55.2138
rfemur -31.781 -5.18769 17.4476
rtibia 64.1094
rfoot -6.74722 -3.11387
rtoes 14.4055
lfemur -7.76737 -3.88967 -28.4744
ltibia 25.573
lfoot -13.9446 -11.1329
ltoes 12.943
245
root -0.0678169 17.3792 4.3125 -6.0067 -45.6843 7.2439
lowerback 8.4979 -0.178826 -4.17761
upperback 0.717069 -0.597283 1.12305
thorax -3.96886 -0.221874 3.59237
lowerneck -15.8069 -3.08658 -9.96835
upperneck 22.2982 -2.88741 4.4119
head 9.91878 -1.72543 2.82723
rclavicle 4.03036e-014 -2.14687e-014
rhumerus -36.1569 -13.7671 -77.2633
rradius 32.0483
rwrist 3.71142
rhand -12.9178 13.6863
rfingers 7.12502
rthumb 13.1724 -15.8776
lclavicle 4.03036e-014 -2.14687e-014
lhumerus -29.8291 10.4424 82.1665
lradius 25.5629
lwrist -10.1643
lhand -14.6448 25.6189
lfingers 7.12502
lthumb 11.5073 55.2831
rfemur -32.0578 -4.87309 17.9011
rtibia 61.9335
rfoot -7.41217 -2.85573
rtoes 12.0587
lfemur -7.23882 -3.98881 -28.1107
ltibia 25.6298
lfoot -14.5675 -11.2231
ltoes 12.1403
246
root -0.166683 17.367 4.41002 -5.94366 -45.6701 7.15636
lowerback 8.70629 -0.30016 -4.31811
upperback 0.606291 -0.773057 1.33934
thorax -4.18022 -0.297172 3.9238
lowerneck -15.6359 -3.12723 -10.482
upperneck 22.151 -2.8763 4.6187
head 9.8465 -1.73937 2.98659
rclavicle -1.57537e-014 2.46493e-014
rhumerus -36.3989 -13.4684 -76.9207
rradius 31.9382
rwrist 3.64807
rhand -13.1474 13.6475
rfingers 7.12502
rthumb 12.9511 -15.9306
lclavicle -1.57537e-014 2.46493e-014
lhumerus -29.8113 9.8319 82.6499
lradius 25.8883
lwrist -10.3731
lhand -15.0159 25.2673
lfingers 7.12502
lthumb 11.1494 54.9511
rfemur -32.2826 -4.6895 17.9904
rtibia 59.5955
rfoot -7.9571 -2.68891
rtoes 7.64816
lfemur -6.73086 -4.05799 -28.1075
ltibia 25.6721
lfoot -14.6475 -11.6313
ltoes 14.1715
247
root -0.268212 17.3614 4.51325 -5.9063 -45.7332 7.23152
lowerback 8.72346 -0.350394 -4.40397
upperback 0.583872 -0.849446 1.33469
thorax -4.20457 -0.33234 3.97729
lowerneck -15.7562 -3.18415 -10.4593
upperneck 22.0896 -2.95596 4.66187
head 9.85404 -1.76607 2.98604
rclavicle -1.23246e-014 7.95139e-016
rhumerus -36.567 -13.3905 -76.8741
rradius 31.8977
rwrist 3.48373
rhand -13.2553 13.7108
rfingers 7.12502
rthumb 12.8471 -15.8739
lclavicle -1.23246e-014 7.95139e-016
lhumerus -29.6599 9.18215 82.8503
lradius 26.5741
lwrist -10.1459
lhand -15.6749 25.0665
lfingers 7.12502
lthumb 10.5138 54.7836
rfemur -32.4994 -4.2163 17.8982
rtibia 57.1667
rfoot -8.28674 -3.12597
rtoes 5.60164
lfemur -6.22227 -4.23307 -28.2445
ltibia 25.5528
lfoot -14.8144 -11.5423
ltoes 16.1373
248
root -0.372608 17.3555 4.6167 -5.97529 -45.7247 7.46924
lowerback 8.63347 -0.399818 -4.5953
upperback 0.624238 -0.932193 1.26956
thorax -4.10178 -0.37408 4.02484
lowerneck -15.9781 -3.24319 -10.3373
upperneck 22.1205 -3.02947 4.59949
head 9.90989 -1.79434 2.9328
rclavicle -2.5842e-015 -2.3059e-014
rhumerus -36.5576 -13.8997 -76.6398
rradius 31.607
rwrist 3.91517
rhand -12.8895 13.8174
rfingers 7.12502
rthumb 13.1997 -15.7447
lclavicle -2.5842e-015 -2.3059e-014
lhumerus -29.3694 8.51841 82.9555
lradius 27.2421
lwrist -9.6958
lhand -16.6091 24.6894
lfingers 7.12502
lthumb 9.61253 54.4501
rfemur -32.6357 -3.83229 17.623
rtibia 54.6706
rfoot -8.52117 -3.44422
rtoes 5.98327
lfemur -5.58987 -3.82045 -28.4669
ltibia 25.1715
lfoot -14.9222 -11.6586
ltoes 17.905
249
root -0.477189 17.3527 4.71974 -6.38353 -45.5611 8.34371
lowerback 8.39387 -0.499305 -5.28131
upperback 0.661367 -1.12421 1.10129
thorax -3.89972 -0.465411 4.25328
lowerneck -16.3038 -3.25233 -10.1899
upperneck 22.1873 -3.04198 4.58935
head 9.9927 -1.78571 2.90213
rclavicle -5.33737e-014 1.59028e-015
rhumerus -36.4355 -14.3907 -76.4514
rradius 31.2217
rwrist 4.14275
rhand -12.6763 14.1381
rfingers 7.12502
rthumb 13.4052 -15.4106
lclavicle -5.33737e-014 1.59028e-015
lhumerus -28.8492 8.09192 82.9974
lradius 27.5797
lwrist -9.39049
lhand -16.6086 24.404
lfingers 7.12502
lthumb 9.61304 54.1647
rfemur -32.8493 -3.79445 16.8045
rtibia 52.0882
rfoot -8.75568 -3.44882
rtoes 7.27693
lfemur -5.0485 -3.02371 -29.1487
ltibia 24.6973
lfoot -14.7431 -12.2817
ltoes 19.7468
250
root -0.584013 17.3589 4.82402 -6.60903 -45.6792 8.86206
lowerback 8.17223 -0.419888 -5.615
upperback 0.691708 -1.04021 0.997834
thorax -3.74955 -0.424444 4.31925
lowerneck -16.3853 -3.33933 -10.1868
upperneck 22.1196 -3.16971 4.65919
head 9.99535 -1.83322 2.90767
rclavicle -6.29153e-014 0
rhumerus -36.4941 -15.0174 -76.1504
rradius 30.9337
rwrist 4.35396
rhand -12.7662 14.1812
rfingers 7.12502
rthumb 13.3186 -15.3732
lclavicle -6.29153e-014 0
lhumerus -28.3202 7.50634 83.1527
lradius 27.8774
lwrist -9.38647
lhand -15.3782 24.7491
lfingers 7.12502
lthumb 10.8 54.4514
rfemur -32.9117 -3.50947 16.3291
rtibia 49.2887
rfoot -8.79194 -3.67148
rtoes 7.38623
lfemur -4.45184 -2.8886 -29.5585
ltibia 24.2463
lfoot -14.7971 -12.3039
ltoes 20.603
251
root -0.69081 17.3558 4.92518 -6.23343 -46.027 8.55575
lowerback 7.96779 -0.32906 -5.38553
upperback 0.682358 -0.883989 1.06314
thorax -3.6651 -0.352305 4.23701
lowerneck -16.2436 -3.4039 -10.1359
upperneck 21.9358 -3.28485 4.65968
head 9.91159 -1.87959 2.88211
rclavicle 3.08116e-014 -5.56597e-015
rhumerus -36.5976 -15.7944 -75.7778
rradius 30.5746
rwrist 4.96771
rhand -12.8131 14.3397
rfingers 7.12502
rthumb 13.2734 -15.2176
lclavicle 3.08116e-014 -5.56597e-015
lhumerus -27.8572 6.85616 83.2682
lradius 28.2167
lwrist -9.41349
lhand -15.3391 25.3122
lfingers 7.12502
lthumb 10.8377 55.0125
rfemur -32.8975 -2.98187 16.5991
rtibia 46.303
rfoot -8.54197 -4.45971
rtoes 6.44444
lfemur -3.84412 -3.33603 -29.3243
ltibia 23.7698
lfoot -15.1522 -11.8108
ltoes 20.8182
252
root -0.793161 17.3525 5.0167 -5.61947 -46.1808 7.89305
lowerback 8.05184 -0.462761 -5.09881
upperback 0.581927 -1.03591 1.22438
thorax -3.80173 -0.424537 4.26288
lowerneck -16.3833 -3.26484 -9.8981
upperneck 22.0779 -3.12549 4.58476
head 9.96861 -1.7964 2.83876
rclavicle 1.15295e-014 2.22639e-014
rhumerus -36.6005 -16.1144 -75.6205
rradius 30.095
rwrist 5.46566
rhand -12.5851 14.8889
rfingers 7.12502
rthumb 13.4931 -14.654
lclavicle 1.15295e-014 2.22639e-014
lhumerus -27.6334 6.61103 83.1035
lradius 28.5894
lwrist -9.10891
lhand -16.6442 24.6663
lfingers 7.12502
lthumb 9.5786 54.4286
rfemur -32.6989 -2.39855 17.0091
rtibia 43.1782
rfoot -8.4493 -5.39216
rtoes 6.36181
lfemur -3.17004 -3.33805 -28.8108
ltibia 23.2834
lfoot -15.7162 -11.5358
ltoes 18.4263
